<svg width="24" height="24" viewBox="0 0 24 24" fill="none" xmlns="http://www.w3.org/2000/svg">
<path d="M12.0202 2.90991C8.71021 2.90991 6.02021 5.59991 6.02021 8.90991V11.7999C6.02021 12.4099 5.76021 13.3399 5.45021 13.8599L4.30021 15.7699C3.59021 16.9499 4.08021 18.2599 5.38021 18.6999C9.69021 20.1399 14.3402 20.1399 18.6502 18.6999C19.8602 18.2999 20.3902 16.8699 19.7302 15.7699L18.5802 13.8599C18.2802 13.3399 18.0202 12.4099 18.0202 11.7999V8.90991C18.0202 5.60991 15.3202 2.90991 12.0202 2.90991Z" stroke="#171717" stroke-width="1.5" stroke-miterlimit="10" stroke-linecap="round"/>
<path d="M13.8698 3.19994C13.5598 3.10994 13.2398 3.03994 12.9098 2.99994C11.9498 2.87994 11.0298 2.94994 10.1698 3.19994C10.4598 2.45994 11.1798 1.93994 12.0198 1.93994C12.8598 1.93994 13.5798 2.45994 13.8698 3.19994Z" stroke="#171717" stroke-width="1.5" stroke-miterlimit="10" stroke-linecap="round" stroke-linejoin="round"/>
<path d="M15.0199 19.0601C15.0199 20.7101 13.6699 22.0601 12.0199 22.0601C11.1999 22.0601 10.4399 21.7201 9.8999 21.1801C9.3599 20.6401 9.0199 19.8801 9.0199 19.0601" stroke="#171717" stroke-width="1.5" stroke-miterlimit="10"/>
<circle cx="18" cy="5" r="3.5" fill="#C71313" stroke="#F5F5F5"/>
</svg>
