<svg width="16" height="16" viewBox="0 0 16 16" fill="none" xmlns="http://www.w3.org/2000/svg">
<path opacity="0.5" d="M6.52072 2.59253C6.89672 2.27253 7.08472 2.11253 7.28072 2.01853C7.50521 1.91119 7.75089 1.85547 7.99972 1.85547C8.24856 1.85547 8.49423 1.91119 8.71872 2.01853C8.91539 2.11187 9.10339 2.27187 9.47872 2.59253C9.62872 2.72053 9.70339 2.78387 9.78339 2.8372C9.96659 2.95998 10.1723 3.04519 10.3887 3.08787C10.4827 3.10653 10.5807 3.11453 10.7767 3.13053C11.2694 3.1692 11.5154 3.1892 11.7207 3.26187C11.9553 3.34463 12.1683 3.47884 12.3442 3.65464C12.5201 3.83045 12.6545 4.04339 12.7374 4.27787C12.8101 4.48387 12.8294 4.72987 12.8687 5.22187C12.8841 5.41787 12.8921 5.51587 12.9107 5.61053C12.9534 5.82653 13.0387 6.03253 13.1614 6.2152C13.2147 6.2952 13.2787 6.36987 13.4061 6.51987C13.7261 6.89587 13.8867 7.08387 13.9807 7.27987C14.0881 7.50436 14.1438 7.75003 14.1438 7.99887C14.1438 8.2477 14.0881 8.49338 13.9807 8.71787C13.8874 8.91387 13.7267 9.10187 13.4061 9.47787C13.3186 9.57455 13.2369 9.67628 13.1614 9.78253C13.0387 9.96554 12.9535 10.1711 12.9107 10.3872C12.8921 10.4819 12.8841 10.5799 12.8687 10.7759C12.8294 11.2679 12.8101 11.5145 12.7374 11.7199C12.6545 11.9543 12.5201 12.1673 12.3442 12.3431C12.1683 12.5189 11.9553 12.6531 11.7207 12.7359C11.5154 12.8092 11.2694 12.8285 10.7767 12.8672C10.5807 12.8832 10.4834 12.8912 10.3887 12.9099C10.1723 12.9525 9.96659 13.0378 9.78339 13.1605C9.67736 13.2361 9.57586 13.3178 9.47939 13.4052C9.10339 13.7252 8.91539 13.8852 8.71939 13.9792C8.4949 14.0865 8.24922 14.1423 8.00039 14.1423C7.75155 14.1423 7.50588 14.0865 7.28139 13.9792C7.08472 13.8859 6.89672 13.7259 6.52139 13.4052C6.4247 13.3178 6.32297 13.2361 6.21672 13.1605C6.03352 13.0378 5.82776 12.9525 5.61139 12.9099C5.483 12.8881 5.35344 12.8738 5.22339 12.8672C4.73072 12.8285 4.48472 12.8085 4.27939 12.7359C4.04486 12.6531 3.83182 12.5189 3.6559 12.3431C3.47999 12.1673 3.34564 11.9543 3.26272 11.7199C3.19006 11.5145 3.17072 11.2679 3.13139 10.7759C3.125 10.6456 3.11098 10.5158 3.08939 10.3872C3.04662 10.1711 2.96142 9.96554 2.83872 9.78253C2.78539 9.70253 2.72139 9.62787 2.59406 9.47787C2.27406 9.10187 2.11339 8.91387 2.01939 8.71787C1.91204 8.49338 1.85632 8.2477 1.85632 7.99887C1.85632 7.75003 1.91204 7.50436 2.01939 7.27987C2.11339 7.08387 2.27339 6.89587 2.59406 6.51987C2.72139 6.36987 2.78539 6.2952 2.83872 6.2152C2.96142 6.0322 3.04662 5.82668 3.08939 5.61053C3.10806 5.51587 3.11606 5.41787 3.13139 5.22187C3.17072 4.72987 3.19006 4.48387 3.26272 4.27787C3.34571 4.04332 3.48016 3.83033 3.6562 3.65452C3.83224 3.47872 4.0454 3.34455 4.28006 3.26187C4.48539 3.1892 4.73139 3.1692 5.22406 3.13053C5.42006 3.11453 5.51739 3.10653 5.61206 3.08787C5.82843 3.04519 6.03418 2.95998 6.21739 2.8372C6.29739 2.78387 6.37139 2.72053 6.52072 2.59253Z" stroke="#1A9948"/>
<path d="M5.66669 8.33203L7.00002 9.66536L10.3334 6.33203" stroke="#1A9948" stroke-linecap="round" stroke-linejoin="round"/>
</svg>
