<svg width="20" height="17" viewBox="0 0 20 17" fill="none" xmlns="http://www.w3.org/2000/svg">
<path d="M19.136 5H13.854C13.382 5 13 4.557 13 4.011V3.99C13 3.444 13.382 3.001 13.854 3.001H19.136C19.612 3.001 20 3.451 20 4.001C20 4.551 19.612 5.001 19.136 5.001V5ZM19.136 9H13.854C13.382 9 13 8.557 13 8.011V7.989C13 7.443 13.382 7 13.854 7H19.136C19.612 7 20 7.45 20 8C20 8.55 19.612 9 19.136 9ZM19.158 13H15.831C15.371 13 15 12.557 15 12.011V11.989C15 11.443 15.372 11 15.831 11H19.158C19.621 11 20 11.45 20 12C20 12.55 19.621 13 19.158 13ZM7 8C5.93913 8 4.92172 7.57857 4.17157 6.82843C3.42143 6.07828 3 5.06087 3 4C3 2.93913 3.42143 1.92172 4.17157 1.17157C4.92172 0.421427 5.93913 0 7 0C8.06087 0 9.07828 0.421427 9.82843 1.17157C10.5786 1.92172 11 2.93913 11 4C11 5.06087 10.5786 6.07828 9.82843 6.82843C9.07828 7.57857 8.06087 8 7 8ZM0.97 16.073C0.387 16.073 -0.0779996 15.555 0.0100004 14.98C0.270082 13.3132 1.11758 11.7944 2.39944 10.6977C3.68131 9.60107 5.31305 8.99892 7 9C8.68678 8.99916 10.3183 9.60142 11.5999 10.698C12.8816 11.7947 13.7289 13.3134 13.989 14.98C14.079 15.555 13.613 16.073 13.031 16.073H0.97Z" fill="white"/>
</svg>
